<?xml version="1.0" standalone="no"?>
<!DOCTYPE svg PUBLIC "-//W3C//DTD SVG 20010904//EN"
 "http://www.w3.org/TR/2001/REC-SVG-20010904/DTD/svg10.dtd">
<svg version="1.0" xmlns="http://www.w3.org/2000/svg"
 width="154.000000pt" height="51.000000pt" viewBox="0 0 154.000000 51.000000"
 preserveAspectRatio="xMidYMid meet">

<g transform="translate(0.000000,51.000000) scale(0.100000,-0.100000)"
fill="#000000" stroke="none">
<path d="M860 460 c0 -13 7 -20 20 -20 13 0 20 7 20 20 0 13 -7 20 -20 20 -13
0 -20 -7 -20 -20z"/>
<path d="M1230 460 c0 -13 7 -20 20 -20 13 0 20 7 20 20 0 13 -7 20 -20 20
-13 0 -20 -7 -20 -20z"/>
<path d="M710 420 c0 -20 -5 -30 -15 -30 -8 0 -15 -7 -15 -15 0 -8 6 -15 14
-15 10 0 15 -20 18 -81 4 -89 19 -113 68 -107 36 4 39 36 3 40 -28 3 -28 4
-28 73 0 69 0 70 28 73 38 5 36 32 -3 32 -27 0 -30 3 -30 30 0 23 -4 30 -20
30 -16 0 -20 -7 -20 -30z"/>
<path d="M970 420 c0 -16 -4 -30 -10 -30 -5 0 -10 -7 -10 -15 0 -8 5 -15 10
-15 6 0 10 -24 10 -54 0 -111 23 -147 85 -132 34 9 27 29 -11 36 -29 5 -29 6
-29 75 0 69 0 70 28 73 38 5 36 32 -3 32 -27 0 -30 3 -30 30 0 23 -4 30 -20
30 -16 0 -20 -7 -20 -30z"/>
<path d="M48 331 c-6 -118 18 -170 72 -156 14 4 40 7 58 7 l32 -1 0 105 c0 86
-3 104 -15 104 -12 0 -15 -14 -15 -64 0 -79 -5 -93 -41 -111 -45 -24 -59 -1
-59 96 0 61 -3 79 -14 79 -10 0 -15 -17 -18 -59z"/>
<path d="M304 376 c-63 -28 -65 -129 -3 -161 35 -19 53 -19 88 0 38 19 58 68
44 106 -7 17 -7 31 -2 35 17 10 9 22 -13 21 -13 0 -36 2 -53 6 -18 4 -43 1
-61 -7z m84 -32 c30 -21 30 -77 0 -98 -33 -23 -64 -19 -87 10 -27 34 -26 50 4
79 28 29 51 31 83 9z"/>
<path d="M505 364 c-20 -22 -25 -37 -25 -83 0 -68 18 -98 64 -106 43 -9 108
17 100 39 -8 20 -13 20 -52 0 -24 -11 -36 -13 -52 -4 -34 18 -18 40 31 40 28
0 69 44 69 75 0 63 -89 89 -135 39z m95 -23 c8 -16 5 -23 -16 -40 -28 -22 -74
-28 -74 -10 0 15 21 53 34 61 20 14 45 8 56 -11z"/>
<path d="M860 285 c0 -98 1 -105 20 -105 19 0 20 7 20 105 0 98 -1 105 -20
105 -19 0 -20 -7 -20 -105z"/>
<path d="M1230 285 c0 -98 1 -105 20 -105 19 0 20 7 20 105 0 98 -1 105 -20
105 -19 0 -20 -7 -20 -105z"/>
<path d="M1340 285 c0 -98 1 -105 20 -105 18 0 20 7 20 75 0 68 2 76 25 91 49
32 60 18 63 -79 3 -79 5 -87 22 -87 18 0 20 7 20 83 0 97 -14 127 -61 127 -17
0 -39 -5 -50 -10 -13 -7 -19 -7 -19 0 0 5 -9 10 -20 10 -19 0 -20 -7 -20 -105z"/>
<path d="M1120 200 c0 -23 4 -30 20 -30 16 0 20 7 20 30 0 23 -4 30 -20 30
-16 0 -20 -7 -20 -30z"/>
<path d="M415 180 c-3 -5 -33 -10 -66 -10 -59 0 -96 -12 -111 -34 -15 -22 -8
-73 12 -91 24 -21 84 -25 102 -7 9 9 5 12 -18 12 -36 0 -54 16 -54 46 0 24 17
34 58 34 53 0 102 20 102 40 0 21 -15 27 -25 10z"/>
</g>
</svg>
